<?xml version="1.0" standalone="no"?>
<!DOCTYPE svg PUBLIC "-//W3C//DTD SVG 20010904//EN"
 "http://www.w3.org/TR/2001/REC-SVG-20010904/DTD/svg10.dtd">
<svg version="1.0" xmlns="http://www.w3.org/2000/svg"
 width="1024.000000pt" height="1024.000000pt" viewBox="0 0 1024.000000 1024.000000"
 preserveAspectRatio="xMidYMid meet">

<g transform="translate(0.000000,1024.000000) scale(0.100000,-0.100000)"
fill="#000000" stroke="none">
<path d="M0 5120 l0 -5120 5120 0 5120 0 0 5120 0 5120 -5120 0 -5120 0 0
-5120z m5493 2336 c44 -19 85 -65 93 -105 5 -23 4 -32 -3 -28 -19 12 -140 -33
-174 -64 l-34 -30 30 5 30 6 -30 -14 c-26 -13 -31 -13 -41 0 -10 13 -16 13
-48 -2 -36 -18 -51 -48 -18 -38 59 18 -60 -35 -181 -80 -80 -30 -171 -67 -204
-81 -46 -22 -136 -54 -150 -55 -2 0 -3 5 -3 10 0 6 3 9 8 8 12 -3 85 21 112
37 14 8 21 14 15 14 -5 0 -21 -6 -35 -14 -14 -8 -41 -14 -60 -15 -33 0 -120
-37 -120 -51 0 -3 12 -5 28 -2 22 3 20 1 -10 -11 -20 -8 -52 -21 -70 -29 -172
-74 -238 -93 -133 -38 22 12 33 21 25 21 -8 0 -26 -6 -40 -13 -14 -7 -47 -19
-75 -27 -27 -7 -54 -16 -60 -20 -5 -4 -32 -12 -59 -19 -26 -7 -55 -19 -64 -27
-12 -12 -17 -13 -23 -3 -6 10 -10 9 -15 -4 -4 -10 -13 -16 -20 -13 -8 3 -14 2
-14 -3 0 -15 13 -21 25 -11 6 5 29 12 51 15 59 8 30 -5 -186 -85 -107 -39
-222 -82 -255 -95 -33 -13 -82 -31 -110 -40 -277 -94 -418 -276 -402 -520 4
-49 13 -112 22 -139 8 -27 13 -51 11 -54 -3 -2 -10 15 -16 38 -6 23 -14 40
-16 37 -3 -3 -6 -51 -8 -108 -4 -131 -14 -222 -26 -229 -5 -3 -10 -20 -12 -37
-1 -17 -7 -31 -13 -30 -6 1 -10 -18 -9 -45 0 -26 -2 -46 -4 -44 -2 3 -17 64
-33 138 -16 73 -50 205 -74 293 -81 292 -148 579 -148 630 0 28 7 66 16 86 20
48 82 116 126 139 35 18 295 120 306 120 3 0 49 20 102 44 54 24 150 62 213
85 l115 41 78 -15 c144 -27 198 -18 402 72 50 22 101 44 115 48 14 4 95 36
180 71 85 35 286 115 445 178 260 103 297 115 353 116 34 0 77 -6 95 -14z
m446 -288 c36 -13 89 -66 113 -113 11 -21 54 -138 95 -260 41 -121 78 -224 84
-229 23 -24 7 -43 -53 -70 -225 -98 -417 -178 -633 -262 -77 -30 -165 -66
-195 -81 -83 -39 -340 -144 -394 -160 -14 -5 -17 -3 -11 7 5 9 4 11 -4 6 -6
-4 -9 -11 -6 -16 2 -4 -10 -13 -28 -20 -17 -7 -80 -34 -138 -60 -58 -27 -155
-69 -215 -94 -217 -89 -421 -174 -512 -215 -51 -22 -98 -41 -104 -41 -6 0 -70
-27 -142 -59 -72 -32 -140 -62 -151 -65 -18 -5 -25 12 -78 212 -130 485 -131
527 -15 639 40 39 72 54 363 164 176 66 349 131 385 144 36 13 171 65 300 115
129 51 314 123 410 160 96 37 285 114 420 170 350 147 364 152 429 144 30 -3
66 -10 80 -16z m-1529 -338 c0 -5 -8 -10 -17 -10 -15 0 -16 2 -3 10 19 12 20
12 20 0z m2216 -94 c60 -19 141 -48 179 -65 113 -49 453 -180 540 -208 105
-33 128 -48 119 -76 -3 -12 -75 -168 -159 -347 -84 -179 -156 -336 -160 -350
-4 -14 -29 -69 -54 -123 l-47 -97 -17 38 c-9 21 -25 63 -36 93 -19 55 -73 162
-94 187 -18 22 -91 9 -182 -33 -151 -69 -162 -75 -135 -71 14 2 41 10 61 19
19 9 48 19 65 22 56 12 -2 -21 -114 -66 -59 -23 -132 -55 -162 -70 -62 -32
-185 -85 -310 -134 -47 -19 -173 -72 -280 -120 -107 -47 -260 -112 -340 -145
-80 -32 -174 -72 -210 -89 -68 -32 -96 -39 -84 -20 9 14 -12 8 -156 -48 -63
-25 -124 -52 -135 -59 -25 -18 -12 -18 23 0 40 20 204 77 209 72 2 -2 -31 -18
-74 -34 -43 -17 -134 -56 -203 -87 -119 -54 -262 -115 -415 -175 -38 -15 -162
-67 -275 -115 -218 -93 -324 -135 -341 -135 -6 0 -9 7 -5 15 8 21 -1 19 -85
-15 -59 -25 -97 -33 -199 -41 -294 -24 -490 28 -630 170 -71 72 -106 141 -117
236 l-6 50 49 -44 c58 -51 183 -112 274 -135 36 -9 130 -19 210 -22 216 -9
336 16 590 124 107 45 662 278 845 354 66 27 235 98 375 158 300 128 609 258
735 310 50 21 221 92 380 160 160 67 331 138 380 157 50 19 137 55 194 80
l103 47 -6 42 c-3 23 -13 60 -22 83 -15 38 -19 41 -54 41 -27 0 -73 -18 -155
-59 -64 -33 -149 -73 -188 -90 -245 -102 -341 -143 -412 -176 -44 -20 -141
-61 -215 -90 -74 -29 -171 -70 -215 -90 -44 -20 -116 -50 -160 -67 -44 -17
-85 -34 -90 -39 -6 -4 -51 -24 -100 -44 -50 -20 -139 -57 -200 -82 -60 -25
-128 -47 -149 -48 -37 -3 -141 -44 -132 -52 2 -2 32 7 67 21 34 14 64 24 66
22 4 -4 -177 -85 -272 -121 -33 -13 -96 -40 -140 -60 -108 -50 -182 -75 -203
-69 -12 4 -13 3 -4 -3 9 -7 -19 -23 -95 -56 -204 -87 -560 -227 -619 -243 -72
-19 -353 -30 -434 -16 -47 8 -31 10 115 13 l170 3 -165 6 c-162 6 -167 6 -248
42 -243 106 -335 208 -350 388 l-5 65 54 -51 c139 -130 297 -184 539 -184 223
0 289 20 795 234 198 85 396 168 440 186 44 18 118 49 165 70 77 34 379 160
845 352 227 93 712 294 908 376 129 53 157 69 157 85 0 11 -22 68 -49 126 -49
107 -66 151 -58 151 2 0 53 -15 113 -34z m-3757 -783 c90 -365 118 -493 106
-493 -4 0 -30 8 -57 18 -57 19 -107 70 -152 153 -49 90 -35 196 40 307 20 28
40 52 45 52 4 0 12 -17 18 -37z m458 -185 c-3 -8 -6 -5 -6 6 -1 11 2 17 5 13
3 -3 4 -12 1 -19z m10 -50 c-3 -7 -5 -2 -5 12 0 14 2 19 5 13 2 -7 2 -19 0
-25z m3443 -200 c0 -7 21 -55 47 -107 53 -107 52 -112 -23 -153 -58 -32 -82
-37 -39 -7 28 19 28 20 5 14 -23 -6 -105 -39 -330 -132 -86 -35 -205 -88 -380
-169 -129 -59 -399 -175 -615 -264 -38 -16 -124 -52 -190 -80 -66 -28 -158
-66 -205 -85 -164 -64 -192 -76 -258 -109 -37 -18 -83 -38 -102 -46 -61 -22
-200 -81 -350 -147 -390 -174 -616 -237 -840 -237 -107 0 -138 4 -215 27 -186
57 -292 131 -344 240 -27 59 -48 147 -35 147 3 0 26 -18 51 -40 103 -90 258
-133 488 -133 226 0 346 33 772 214 247 106 437 186 903 381 151 64 329 139
395 168 66 29 172 74 235 100 63 26 198 85 300 130 102 45 244 107 315 137 72
30 166 71 210 90 72 32 179 71 198 72 4 1 7 -5 7 -11z m-190 -360 c-55 -25
-107 -41 -94 -29 13 13 106 50 124 50 8 -1 -5 -10 -30 -21z m-120 -48 c-8 -5
-19 -10 -25 -10 -5 0 -3 5 5 10 8 5 20 10 25 10 6 0 3 -5 -5 -10z m-250 -105
c-14 -8 -29 -14 -35 -14 -5 0 1 6 15 14 14 8 30 14 35 14 6 0 -1 -6 -15 -14z
m-50 -20 c0 -3 -44 -25 -97 -51 -54 -25 -129 -61 -168 -80 -38 -19 -77 -34
-85 -34 -19 1 235 127 273 135 15 4 27 10 27 15 0 5 10 11 23 13 12 2 23 5 25
6 1 0 2 -1 2 -4z m-440 -205 c-8 -5 -22 -9 -30 -9 -10 0 -8 3 5 9 27 12 43 12
25 0z m-74 -25 c-11 -8 -25 -15 -32 -15 -6 0 -44 -14 -84 -31 -40 -17 -74 -28
-77 -25 -6 6 5 10 127 57 87 32 92 34 66 14z m2239 -128 c49 -48 65 -99 46
-146 -12 -28 -66 -61 -101 -61 -40 0 -160 132 -160 176 0 14 11 36 25 49 20
21 34 25 86 25 59 0 63 -2 104 -43z m-382 -141 c12 -13 37 -53 56 -90 32 -64
33 -67 16 -92 -17 -26 -70 -54 -102 -54 -10 0 -47 30 -81 66 -59 61 -63 68
-60 107 2 34 9 45 37 64 46 31 105 31 134 -1z m-3783 -22 c-19 -8 -55 -17 -80
-20 -42 -4 -40 -3 20 15 79 23 107 26 60 5z m1230 1 c0 -2 -15 -12 -32 -20
l-33 -16 24 21 c22 19 41 26 41 15z m-184 -80 c-11 -8 -25 -15 -30 -15 -6 1 0
7 14 15 32 19 40 18 16 0z m1064 -60 c89 -23 164 -61 221 -113 42 -38 63 -63
120 -144 3 -5 48 -1 99 8 74 12 106 13 154 5 146 -26 274 -130 316 -257 18
-54 22 -82 18 -153 -4 -77 -8 -94 -43 -161 -22 -41 -67 -103 -99 -138 -49 -52
-78 -72 -160 -112 -150 -71 -249 -114 -366 -159 -58 -22 -141 -54 -185 -72
-44 -17 -119 -46 -167 -64 -48 -19 -102 -41 -120 -49 -34 -16 -167 -73 -253
-109 -96 -40 -273 -24 -389 35 -55 28 -133 103 -177 171 -138 212 -45 513 181
590 l45 15 0 144 0 143 38 90 c31 74 50 102 105 158 159 162 430 232 662 172z
m1328 0 c34 -29 82 -117 82 -151 0 -33 -58 -74 -104 -74 -29 0 -46 9 -81 41
-83 76 -84 152 -2 189 55 26 70 25 105 -5z m-2626 -42 c-29 -14 -55 -23 -58
-21 -6 6 79 48 96 47 8 0 -9 -12 -38 -26z m-112 -42 c0 -4 -30 -22 -67 -38
-87 -39 -106 -45 -98 -33 3 6 12 10 20 10 7 0 15 5 17 10 2 6 30 21 63 35 70
29 65 27 65 16z m-180 -80 c0 -10 -101 -51 -123 -51 -9 1 67 37 121 59 1 1 2
-3 2 -8z m-165 -61 c-3 -5 -12 -10 -18 -10 -7 0 -6 4 3 10 19 12 23 12 15 0z
m293 -975 c32 -23 71 -95 78 -146 6 -42 4 -47 -26 -72 -51 -43 -77 -36 -148
37 -54 57 -62 70 -62 104 0 41 16 63 60 81 37 15 73 13 98 -4z m-343 -166 c39
-48 75 -124 75 -162 0 -42 -33 -76 -82 -83 -31 -6 -38 -2 -66 32 -17 22 -49
48 -69 59 -35 19 -38 24 -37 63 1 48 29 86 79 108 47 21 71 17 100 -17z m-337
-172 c54 -49 77 -141 46 -185 -44 -64 -121 -65 -184 -2 -64 64 -72 136 -21
178 56 45 116 49 159 9z"/>
<path d="M5250 7180 c-9 -6 -10 -10 -3 -10 6 0 15 5 18 10 8 12 4 12 -15 0z"/>
<path d="M4960 7086 c0 -2 7 -7 16 -10 8 -3 12 -2 9 4 -6 10 -25 14 -25 6z"/>
<path d="M4570 6930 c-8 -5 -10 -10 -5 -10 6 0 17 5 25 10 8 5 11 10 5 10 -5
0 -17 -5 -25 -10z"/>
<path d="M4070 6749 c-22 -9 -23 -11 -8 -20 13 -7 23 -4 38 11 22 22 11 25
-30 9z"/>
<path d="M6137 6529 c-22 -11 -37 -23 -34 -25 5 -6 87 33 87 41 0 9 -14 4 -53
-16z"/>
<path d="M5373 6197 c-54 -20 -64 -39 -10 -21 26 9 49 20 53 25 7 11 -3 10
-43 -4z"/>
<path d="M4895 5990 c-16 -7 -17 -9 -3 -9 9 -1 20 4 23 9 7 11 7 11 -20 0z"/>
<path d="M6600 6200 c-8 -5 -12 -12 -9 -15 4 -3 12 1 19 10 14 17 11 19 -10 5z"/>
<path d="M5865 5880 c-11 -4 -35 -14 -53 -20 -18 -7 -31 -14 -29 -16 4 -4 107
32 115 41 8 7 -10 5 -33 -5z"/>
<path d="M5631 5789 c-13 -5 -21 -12 -18 -15 3 -3 18 1 34 10 31 17 21 20 -16
5z"/>
<path d="M5500 5720 c-9 -6 -10 -10 -3 -10 6 0 15 5 18 10 8 12 4 12 -15 0z"/>
<path d="M5440 5695 c-16 -9 -19 -14 -9 -15 8 0 24 7 35 15 24 18 7 19 -26 0z"/>
<path d="M6535 5670 c-3 -5 -1 -10 4 -10 6 0 11 5 11 10 0 6 -2 10 -4 10 -3 0
-8 -4 -11 -10z"/>
<path d="M6427 5624 c-16 -9 -27 -17 -25 -20 5 -5 68 25 68 32 0 7 -15 3 -43
-12z"/>
<path d="M7044 5545 c3 -8 1 -15 -4 -15 -6 0 -10 5 -10 12 0 6 -3 9 -6 5 -3
-3 1 -15 9 -27 8 -12 17 -18 19 -13 15 26 15 42 1 47 -11 4 -14 2 -9 -9z"/>
<path d="M6119 5490 c-50 -20 -121 -60 -104 -59 14 0 173 77 160 77 -5 0 -31
-8 -56 -18z"/>
<path d="M5881 5389 c-13 -5 -22 -12 -19 -14 6 -6 58 12 58 20 0 7 -11 5 -39
-6z"/>
<path d="M5580 5253 c-106 -39 -271 -107 -286 -118 -10 -8 28 5 86 28 58 24
126 49 152 56 26 8 53 20 59 27 12 15 12 15 -11 7z"/>
<path d="M4115 5140 c-22 -11 -29 -17 -15 -14 38 10 87 32 70 33 -8 0 -33 -8
-55 -19z"/>
<path d="M3870 5040 c-47 -21 -124 -51 -173 -66 -48 -15 -85 -29 -82 -32 11
-11 365 119 365 134 0 10 -31 -1 -110 -36z"/>
<path d="M4780 4915 c-14 -8 -20 -14 -14 -15 5 0 19 7 30 15 24 18 16 19 -16
0z"/>
<path d="M4590 4836 c-20 -8 -58 -25 -85 -38 -28 -14 -81 -35 -118 -48 -38
-12 -67 -24 -64 -26 7 -7 162 48 207 74 25 14 45 25 45 23 0 -1 12 2 28 8 15
6 27 13 27 16 0 3 -1 5 -2 4 -2 0 -19 -6 -38 -13z"/>
<path d="M4188 4673 c-10 -2 -18 -9 -18 -14 0 -14 26 -11 40 6 13 15 9 16 -22
8z"/>
<path d="M4130 4640 c-8 -5 -10 -10 -5 -10 6 0 17 5 25 10 8 5 11 10 5 10 -5
0 -17 -5 -25 -10z"/>
<path d="M3988 4583 c7 -3 16 -2 19 1 4 3 -2 6 -13 5 -11 0 -14 -3 -6 -6z"/>
<path d="M5593 4005 c-67 -16 -175 -77 -224 -126 -21 -21 -49 -60 -62 -86 -84
-167 -51 -322 99 -470 40 -40 94 -83 121 -97 63 -31 163 -50 230 -41 112 14
282 131 330 227 83 166 65 337 -49 463 -111 122 -278 171 -445 130z m267 -181
c82 -44 120 -112 120 -218 0 -72 -31 -128 -100 -181 -72 -56 -97 -65 -168 -65
-58 0 -86 11 -186 68 -72 41 -90 69 -94 152 -4 60 -1 78 22 125 50 102 151
158 276 152 61 -3 87 -9 130 -33z"/>
<path d="M5655 3676 c-51 -23 -68 -50 -68 -110 0 -60 17 -95 58 -122 32 -21
97 -29 123 -15 35 19 75 97 74 146 0 48 -23 99 -47 109 -28 10 -109 6 -140 -8z
m115 -88 c11 -12 18 -28 15 -36 -3 -7 -5 -17 -5 -21 0 -4 -16 -8 -35 -9 -27
-2 -35 1 -35 14 0 9 -9 18 -19 21 -13 3 -18 10 -14 21 14 38 62 43 93 10z"/>
</g>
</svg>
